<svg xmlns="http://www.w3.org/2000/svg" viewBox="0 0 1600 900">
  <defs>
    <linearGradient id="bg9" x1="0" y1="0" x2="1" y2="1">
      <stop offset="0%" stop-color="#f4f7ff"/>
      <stop offset="50%" stop-color="#e4f5ff"/>
      <stop offset="100%" stop-color="#dde6ff"/>
    </linearGradient>
  </defs>
  <rect width="1600" height="900" fill="url(#bg9)"/>
  <rect x="320" y="260" width="960" height="380" rx="26" fill="#ffffff" opacity="0.96"/>
  <rect x="360" y="300" width="240" height="260" rx="18" fill="#00a6b4" opacity="0.9"/>
  <rect x="440" y="340" width="80" height="160" rx="12" fill="#ffffff" opacity="0.9"/>
  <rect x="620" y="330" width="240" height="230" rx="18" fill="#003b73" opacity="0.9"/>
  <rect x="700" y="360" width="80" height="150" rx="12" fill="#ffffff" opacity="0.9"/>
  <rect x="880" y="320" width="240" height="240" rx="18" fill="#ff6a00" opacity="0.9"/>
  <rect x="960" y="355" width="80" height="150" rx="12" fill="#ffffff" opacity="0.9"/>
  <path d="M360 580c80-40 150-60 250-60s190 20 290 60" fill="none" stroke="#00a6b4" stroke-width="8" stroke-linecap="round" opacity="0.8"/>
  <circle cx="360" cy="580" r="6" fill="#00a6b4"/>
  <circle cx="610" cy="540" r="6" fill="#00a6b4"/>
  <circle cx="860" cy="560" r="6" fill="#00a6b4"/>
  <circle cx="1110" cy="580" r="6" fill="#00a6b4"/>
</svg>
