<svg xmlns="http://www.w3.org/2000/svg" viewBox="0 0 1600 900">
  <defs>
    <linearGradient id="bg6" x1="0" y1="0" x2="1" y2="1">
      <stop offset="0%" stop-color="#f3f6ff"/>
      <stop offset="50%" stop-color="#e4f3ff"/>
      <stop offset="100%" stop-color="#dde6ff"/>
    </linearGradient>
  </defs>
  <rect width="1600" height="900" fill="url(#bg6)"/>
  <rect x="260" y="420" width="1080" height="220" rx="26" fill="#ffffff" opacity="0.96"/>
  <rect x="300" y="450" width="160" height="150" rx="16" fill="#e4f3f7"/>
  <rect x="500" y="420" width="200" height="180" rx="18" fill="#00a6b4" opacity="0.9"/>
  <rect x="740" y="440" width="220" height="160" rx="18" fill="#003b73" opacity="0.9"/>
  <rect x="1000" y="460" width="220" height="140" rx="18" fill="#ff6a00" opacity="0.9"/>
  <rect x="280" y="620" width="520" height="16" rx="8" fill="#c0cada"/>
  <rect x="280" y="650" width="420" height="12" rx="6" fill="#9ca8c0"/>
  <rect x="280" y="680" width="380" height="12" rx="6" fill="#00a6b4"/>
  <circle cx="440" cy="320" r="90" fill="#ffffff" opacity="0.95"/>
  <rect x="405" y="270" width="70" height="120" rx="14" fill="#00a6b4" opacity="0.9"/>
  <rect x="445" y="250" width="70" height="140" rx="14" fill="#003b73" opacity="0.9"/>
  <rect x="485" y="290" width="60" height="100" rx="14" fill="#ff6a00" opacity="0.9"/>
  <circle cx="1210" cy="260" r="110" fill="#ffffff" opacity="0.9"/>
  <rect x="1150" y="230" width="120" height="60" rx="14" fill="#00a6b4" opacity="0.95"/>
  <rect x="1170" y="310" width="80" height="20" rx="10" fill="#003b73" opacity="0.9"/>
</svg>
