<svg xmlns="http://www.w3.org/2000/svg" viewBox="0 0 1600 900">
  <defs>
    <linearGradient id="bg4" x1="0" y1="0" x2="1" y2="1">
      <stop offset="0%" stop-color="#f5f7ff"/>
      <stop offset="50%" stop-color="#e6f2f3"/>
      <stop offset="100%" stop-color="#dde4ff"/>
    </linearGradient>
  </defs>
  <rect width="1600" height="900" fill="url(#bg4)"/>
  <rect x="320" y="210" width="960" height="460" rx="32" fill="#ffffff" opacity="0.95"/>
  <rect x="360" y="250" width="320" height="40" rx="20" fill="#003b73" opacity="0.95"/>
  <rect x="360" y="320" width="520" height="14" rx="7" fill="#00a6b4"/>
  <rect x="360" y="360" width="480" height="10" rx="5" fill="#9ca8c0"/>
  <rect x="360" y="390" width="420" height="10" rx="5" fill="#c0cada"/>
  <rect x="360" y="430" width="540" height="14" rx="7" fill="#ff6a00"/>
  <rect x="360" y="470" width="500" height="12" rx="6" fill="#003b73"/>
  <rect x="360" y="510" width="420" height="12" rx="6" fill="#00a6b4"/>
  <circle cx="1070" cy="340" r="90" fill="#e4f3f7"/>
  <rect x="1020" y="300" width="100" height="90" rx="18" fill="#00a6b4" opacity="0.9"/>
  <path d="M1038 320h64l-26 42 26 42h-64l-26-42z" fill="#003b73" opacity="0.9"/>
  <circle cx="1180" cy="520" r="70" fill="#ff6a00" opacity="0.9"/>
  <path d="M1160 495h40v50h-40z" fill="#ffffff" opacity="0.95"/>
  <rect x="380" y="600" width="360" height="26" rx="13" fill="#e4f3f7"/>
  <rect x="380" y="640" width="260" height="18" rx="9" fill="#e4f3f7"/>
</svg>
