<svg xmlns="http://www.w3.org/2000/svg" viewBox="0 0 1600 900">
  <defs>
    <linearGradient id="bg2" x1="0" y1="0" x2="1" y2="1">
      <stop offset="0%" stop-color="#f4f7ff"/>
      <stop offset="50%" stop-color="#e0f2f4"/>
      <stop offset="100%" stop-color="#d7e0ff"/>
    </linearGradient>
    <linearGradient id="path2" x1="0" y1="0" x2="1" y2="0">
      <stop offset="0%" stop-color="#00a6b4"/>
      <stop offset="100%" stop-color="#003b73"/>
    </linearGradient>
  </defs>
  <rect width="1600" height="900" fill="url(#bg2)"/>
  <circle cx="380" cy="260" r="170" fill="#ffffff" opacity="0.9"/>
  <circle cx="1180" cy="320" r="150" fill="#ffffff" opacity="0.9"/>
  <circle cx="980" cy="620" r="190" fill="#ffffff" opacity="0.85"/>
  <path d="M340 230c80-40 150-60 260-60s200 20 320 70 220 120 320 210" fill="none" stroke="url(#path2)" stroke-width="12" stroke-linecap="round" stroke-linejoin="round" opacity="0.95"/>
  <circle cx="360" cy="230" r="18" fill="#00a6b4"/>
  <circle cx="640" cy="200" r="16" fill="#003b73"/>
  <circle cx="880" cy="260" r="16" fill="#00a6b4"/>
  <circle cx="1120" cy="340" r="18" fill="#ff6a00"/>
  <circle cx="1320" cy="450" r="16" fill="#003b73"/>
  <rect x="260" y="430" width="520" height="280" rx="32" fill="#ffffff" opacity="0.9"/>
  <rect x="285" y="455" width="220" height="16" rx="8" fill="#003b73"/>
  <rect x="285" y="495" width="360" height="12" rx="6" fill="#9ca8c0"/>
  <rect x="285" y="525" width="320" height="12" rx="6" fill="#c0cada"/>
  <rect x="285" y="565" width="380" height="14" rx="7" fill="#00a6b4"/>
  <rect x="285" y="605" width="340" height="14" rx="7" fill="#ff6a00"/>
  <rect x="285" y="645" width="260" height="12" rx="6" fill="#003b73"/>
  <rect x="940" y="480" width="260" height="180" rx="26" fill="#e4f3f7"/>
  <rect x="965" y="505" width="210" height="12" rx="6" fill="#00a6b4"/>
  <rect x="965" y="540" width="180" height="10" rx="5" fill="#9ca8c0"/>
  <rect x="965" y="570" width="200" height="10" rx="5" fill="#c0cada"/>
</svg>
