<svg xmlns="http://www.w3.org/2000/svg" viewBox="0 0 1600 900">
  <defs>
    <linearGradient id="bg8" x1="0" y1="0" x2="1" y2="1">
      <stop offset="0%" stop-color="#f3f6ff"/>
      <stop offset="50%" stop-color="#e3f5ff"/>
      <stop offset="100%" stop-color="#dde7ff"/>
    </linearGradient>
  </defs>
  <rect width="1600" height="900" fill="url(#bg8)"/>
  <rect x="260" y="360" width="1080" height="220" rx="26" fill="#ffffff" opacity="0.96"/>
  <rect x="300" y="390" width="260" height="160" rx="22" fill="#e4f3f7"/>
  <rect x="340" y="420" width="180" height="30" rx="15" fill="#00a6b4"/>
  <rect x="340" y="465" width="160" height="22" rx="11" fill="#003b73"/>
  <rect x="620" y="390" width="320" height="160" rx="22" fill="#00a6b4" opacity="0.9"/>
  <rect x="660" y="420" width="220" height="26" rx="13" fill="#ffffff" opacity="0.95"/>
  <rect x="660" y="470" width="200" height="18" rx="9" fill="#ffffff" opacity="0.85"/>
  <rect x="990" y="390" width="280" height="160" rx="22" fill="#003b73" opacity="0.9"/>
  <rect x="1030" y="425" width="200" height="26" rx="13" fill="#ffffff" opacity="0.95"/>
  <rect x="1030" y="470" width="160" height="18" rx="9" fill="#ffffff" opacity="0.85"/>
  <path d="M320 610h260l40 40h260l40-40h260" fill="none" stroke="#00a6b4" stroke-width="10" stroke-linecap="round" stroke-linejoin="round" opacity="0.9"/>
  <circle cx="320" cy="610" r="10" fill="#00a6b4"/>
  <circle cx="580" cy="650" r="10" fill="#00a6b4"/>
  <circle cx="880" cy="650" r="10" fill="#00a6b4"/>
  <circle cx="1180" cy="610" r="10" fill="#00a6b4"/>
</svg>
