<svg xmlns="http://www.w3.org/2000/svg" viewBox="0 0 1600 900">
  <defs>
    <linearGradient id="bg1" x1="0" y1="0" x2="1" y2="1">
      <stop offset="0%" stop-color="#f5f9ff"/>
      <stop offset="50%" stop-color="#e4f3f7"/>
      <stop offset="100%" stop-color="#d6e2ff"/>
    </linearGradient>
    <linearGradient id="accent1" x1="0" y1="0" x2="1" y2="0">
      <stop offset="0%" stop-color="#00a6b4"/>
      <stop offset="100%" stop-color="#ff6a00"/>
    </linearGradient>
  </defs>
  <rect width="1600" height="900" fill="url(#bg1)"/>
  <circle cx="300" cy="260" r="190" fill="#ffffff" opacity="0.9"/>
  <circle cx="1270" cy="640" r="230" fill="#ffffff" opacity="0.9"/>
  <path d="M260 160h180l-70 120 70 120H260l-70-120z" fill="#00a6b4" opacity="0.9"/>
  <path d="M290 200h120l-50 80 50 80H290l-50-80z" fill="#003b73" opacity="0.9"/>
  <rect x="520" y="190" width="780" height="70" rx="35" fill="#ffffff" opacity="0.95"/>
  <rect x="520" y="290" width="640" height="340" rx="32" fill="#ffffff" opacity="0.9"/>
  <rect x="540" y="310" width="260" height="14" rx="7" fill="#003b73" opacity="0.9"/>
  <rect x="540" y="350" width="420" height="10" rx="5" fill="#9ca8c0" opacity="0.9"/>
  <rect x="540" y="380" width="380" height="10" rx="5" fill="#c0cada" opacity="0.9"/>
  <rect x="540" y="430" width="520" height="14" rx="7" fill="#00a6b4" opacity="0.9"/>
  <rect x="540" y="470" width="480" height="12" rx="6" fill="#ff6a00" opacity="0.9"/>
  <rect x="540" y="510" width="380" height="12" rx="6" fill="#003b73" opacity="0.9"/>
  <circle cx="520" cy="740" r="5" fill="#00a6b4"/>
  <circle cx="550" cy="740" r="5" fill="#00a6b4" opacity="0.7"/>
  <circle cx="580" cy="740" r="5" fill="#00a6b4" opacity="0.4"/>
  <rect x="1120" y="210" width="220" height="220" rx="40" fill="#ffffff" opacity="0.9"/>
  <circle cx="1230" cy="260" r="60" fill="#00a6b4" opacity="0.9"/>
  <path d="M1205 245h30l-12 20 12 20h-30l-12-20z" fill="#003b73"/>
  <circle cx="1360" cy="180" r="90" fill="url(#accent1)" opacity="0.35"/>
</svg>
