<svg xmlns="http://www.w3.org/2000/svg" viewBox="0 0 1600 900">
  <defs>
    <linearGradient id="bg5" x1="0" y1="0" x2="1" y2="1">
      <stop offset="0%" stop-color="#f4f6ff"/>
      <stop offset="50%" stop-color="#e6f2ff"/>
      <stop offset="100%" stop-color="#dde8ff"/>
    </linearGradient>
  </defs>
  <rect width="1600" height="900" fill="url(#bg5)"/>
  <rect x="420" y="200" width="360" height="480" rx="26" fill="#ffffff" opacity="0.96"/>
  <rect x="460" y="230" width="220" height="16" rx="8" fill="#003b73"/>
  <rect x="460" y="270" width="260" height="10" rx="5" fill="#9ca8c0"/>
  <rect x="460" y="300" width="240" height="10" rx="5" fill="#c0cada"/>
  <rect x="460" y="340" width="260" height="12" rx="6" fill="#00a6b4"/>
  <rect x="460" y="380" width="240" height="12" rx="6" fill="#ff6a00"/>
  <rect x="460" y="430" width="220" height="10" rx="5" fill="#9ca8c0"/>
  <rect x="460" y="460" width="260" height="10" rx="5" fill="#c0cada"/>
  <rect x="460" y="500" width="260" height="12" rx="6" fill="#00a6b4"/>
  <rect x="460" y="540" width="220" height="12" rx="6" fill="#003b73"/>
  <rect x="460" y="580" width="200" height="10" rx="5" fill="#9ca8c0"/>
  <rect x="850" y="240" width="340" height="420" rx="26" fill="#ffffff" opacity="0.96"/>
  <rect x="890" y="270" width="220" height="16" rx="8" fill="#003b73"/>
  <rect x="890" y="310" width="250" height="10" rx="5" fill="#9ca8c0"/>
  <rect x="890" y="340" width="230" height="10" rx="5" fill="#c0cada"/>
  <rect x="890" y="380" width="260" height="12" rx="6" fill="#00a6b4"/>
  <rect x="890" y="420" width="240" height="12" rx="6" fill="#ff6a00"/>
  <rect x="890" y="460" width="250" height="10" rx="5" fill="#9ca8c0"/>
  <rect x="890" y="500" width="220" height="10" rx="5" fill="#c0cada"/>
  <rect x="890" y="540" width="260" height="12" rx="6" fill="#00a6b4"/>
  <rect x="890" y="580" width="220" height="12" rx="6" fill="#003b73"/>
</svg>
